<?xml version="1.0" encoding="UTF-8"?>
<!DOCTYPE svg PUBLIC "-//W3C//DTD SVG 1.1//EN" "http://www.w3.org/Graphics/SVG/1.1/DTD/svg11.dtd">
<!-- Creator: CorelDRAW X7 -->
<svg xmlns="http://www.w3.org/2000/svg" xml:space="preserve" width="1.355in" height="1.393in" version="1.1" style="shape-rendering:geometricPrecision; text-rendering:geometricPrecision; image-rendering:optimizeQuality; fill-rule:evenodd; clip-rule:evenodd"
viewBox="0 0 1355 1393"
 xmlns:xlink="http://www.w3.org/1999/xlink">
 <defs>
  <style type="text/css">
   <![CDATA[
    .fil5 {fill:#009933}
    .fil4 {fill:#036C1C}
    .fil0 {fill:url(#id2);fill-rule:nonzero}
    .fil1 {fill:url(#id3);fill-rule:nonzero}
    .fil2 {fill:url(#id4);fill-rule:nonzero}
    .fil3 {fill:url(#id5);fill-rule:nonzero;fill-opacity:0.600000}
   ]]>
  </style>
    <mask id="id0">
  <linearGradient id="id1" gradientUnits="userSpaceOnUse" x1="-902.161" y1="2109.15" x2="987.618" y2="462.705">
   <stop offset="0" style="stop-opacity:0; stop-color:white"/>
   <stop offset="1" style="stop-opacity:1; stop-color:white"/>
  </linearGradient>
     <rect style="fill:url(#id1)" x="-1170" y="25" width="2425" height="2523"/>
    </mask>
  <linearGradient id="id2" gradientUnits="userSpaceOnUse" x1="0.0708661" y1="696.961" x2="1354.73" y2="696.961">
   <stop offset="0" style="stop-opacity:1; stop-color:#33CC33"/>
   <stop offset="1" style="stop-opacity:1; stop-color:#009933"/>
  </linearGradient>
  <linearGradient id="id3" gradientUnits="userSpaceOnUse" x1="-639.693" y1="1880.48" x2="725.15" y2="691.378">
   <stop offset="0" style="stop-opacity:1; stop-color:#009933"/>
   <stop offset="1" style="stop-opacity:1; stop-color:#006633"/>
  </linearGradient>
  <linearGradient id="id4" gradientUnits="userSpaceOnUse" x1="637.894" y1="60.622" x2="930.161" y2="1191.7">
   <stop offset="0" style="stop-opacity:1; stop-color:#FBCC01"/>
   <stop offset="1" style="stop-opacity:1; stop-color:#ED6D01"/>
  </linearGradient>
  <linearGradient id="id5" gradientUnits="userSpaceOnUse" x1="644.339" y1="80.6535" x2="973.866" y2="1355.93">
   <stop offset="0" style="stop-opacity:1; stop-color:#FBCC01"/>
   <stop offset="1" style="stop-opacity:1; stop-color:#FFC600"/>
  </linearGradient>
 </defs>
 <g id="Layer_x0020_1">
  <metadata id="CorelCorpID_0Corel-Layer"/>
  <g id="_433605496">
   <path class="fil0" d="M1355 826l0 3c0,3 0,6 0,9 0,-1 -1,-2 -1,-3 -2,45 -15,98 -39,163 0,0 -16,36 -48,86 0,0 0,0 0,0 -9,11 -18,23 -27,35l0 1c-28,35 -60,73 -90,102l0 0c-9,9 -18,18 -27,25 -1,0 -2,1 -3,2 -1,1 -2,1 -3,2 0,0 -1,1 -1,1 0,0 -1,1 -1,1 0,0 0,0 -1,0 0,1 0,1 0,1 -6,4 -12,8 -18,12 -1,1 -2,2 -3,3 -1,1 -2,1 -3,2 -6,4 -12,8 -18,12 -3,1 -5,3 -7,4 -4,3 -8,6 -13,8 -4,2 -8,5 -12,7 -1,1 -3,2 -5,3 -5,3 -11,6 -16,9 -2,0 -3,1 -4,2 -5,2 -9,4 -13,6 -1,1 -2,1 -4,2 -5,2 -10,5 -15,7 -1,1 -3,2 -4,2 -1,0 -1,0 -1,1 -5,2 -10,4 -14,6 -1,0 -3,1 -4,1 -1,0 -2,1 -3,1l0 0c-80,33 -168,51 -261,51 -384,0 -696,-312 -696,-697 0,-197 82,-374 213,-501 1,0 1,0 1,-1 27,-26 57,-50 88,-71 1,-1 1,-1 2,-2 0,0 1,0 1,0 47,-32 97,-58 151,-78 0,0 0,0 0,0 65,-24 134,-38 207,-42 4,0 9,1 13,1 4,1 7,1 10,2 4,0 7,0 10,1 3,0 7,1 10,2 1,0 3,0 4,0 3,1 7,2 10,3 0,0 1,0 2,0 3,1 7,2 11,3 9,3 17,6 25,9 7,3 13,6 19,9 0,1 1,1 1,1 2,1 4,2 6,4 3,1 5,3 7,4 2,1 4,2 6,4 2,1 4,3 6,4 2,2 4,4 6,6 5,4 10,8 14,12 5,6 10,11 14,16 2,3 4,6 6,9 4,6 7,11 10,18 3,4 5,9 7,13 2,5 4,10 6,15 1,3 2,6 3,9 3,7 4,14 6,20 1,4 2,8 2,12 1,6 2,13 3,19 1,4 1,7 1,10 1,7 1,14 2,21 0,6 0,11 0,17l0 1c0,1 0,2 -1,2 0,5 0,10 0,14l0 1c0,4 -1,9 -1,13 0,3 -1,5 -1,7 0,4 -1,8 -1,11 -1,5 -2,11 -3,16 -1,9 -3,19 -5,28 -3,10 -6,19 -8,29 -43,-22 -91,-36 -142,-39 -1,0 -1,0 -2,0 -8,-1 -15,-1 -23,-1 -6,0 -12,0 -18,1 -1,0 -3,0 -5,0 -5,0 -9,1 -14,1 -8,1 -15,2 -23,3 -5,1 -10,2 -15,3 -6,1 -11,2 -16,4 -3,0 -5,1 -8,2 -2,0 -5,1 -7,2 -2,0 -3,1 -4,1 0,0 0,0 -1,0 -5,2 -10,3 -15,5 -4,2 -8,3 -12,5 -1,0 -2,1 -2,1 -1,0 -2,1 -3,1 -1,1 -3,1 -5,2l0 0c0,0 0,0 0,0 -130,58 -221,187 -221,338 0,205 165,370 369,370 75,0 144,-22 201,-59 4,-3 8,-6 12,-8 1,-1 2,-2 3,-2 7,-5 13,-10 20,-16 4,-3 8,-7 13,-11 1,-1 2,-2 4,-4 3,-3 6,-6 9,-9 2,-1 3,-3 4,-4 3,-2 5,-5 7,-8 1,0 2,-1 3,-2 2,-2 4,-4 5,-7 3,-3 6,-6 8,-9 2,-3 5,-6 7,-9 0,0 1,-1 1,-1 2,-3 4,-6 6,-9 1,0 1,-1 2,-2 0,-1 1,-1 1,-2 1,-2 3,-4 4,-6 2,-3 4,-6 6,-9 2,-4 4,-7 6,-11 2,-2 3,-5 4,-7 2,-3 3,-6 4,-8 3,-5 5,-9 7,-13 4,-9 8,-19 11,-28l0 0c1,-4 3,-7 4,-11 1,-5 3,-11 5,-16 1,-6 2,-11 4,-17 6,-26 9,-54 9,-82 0,-22 -2,-44 -6,-66 -1,-5 -2,-10 -3,-15 4,0 9,0 13,0 4,0 9,0 13,0 3,1 7,1 10,1 8,0 16,1 24,2 6,0 13,1 20,2 2,0 5,0 7,1 6,1 13,2 19,3 6,1 13,2 19,4 6,1 12,3 19,5 0,0 0,0 0,0 4,1 8,2 12,3 6,2 12,4 18,7 6,2 11,5 17,7 16,8 32,18 45,30 5,4 9,8 13,12 4,5 8,9 12,14 3,5 7,10 10,16 0,0 0,0 0,0 3,5 6,11 9,17 2,6 5,12 7,18l0 0c1,3 2,6 2,8 3,8 5,17 6,26 0,3 1,6 1,9 0,3 1,6 1,9 0,6 1,11 1,17z"/>
   <path class="fil1" style="mask:url(#id0)" d="M677 105c-48,-79 -111,-59 -226,-28 -80,21 -164,70 -208,98 -18,12 -30,20 -30,20 1,0 1,0 2,0 205,-63 299,26 333,140 2,7 4,14 5,21 1,0 2,-1 3,-1 0,0 1,-1 2,-1 4,-2 8,-3 12,-5 5,-1 10,-3 15,-5 1,0 1,0 1,0 1,0 2,-1 4,-1 2,-1 5,-2 7,-2 3,-1 5,-2 8,-2 5,-2 10,-3 16,-4 5,-1 10,-2 15,-3 8,-1 15,-2 23,-3 5,0 9,-1 14,-1 2,0 4,0 5,0 6,-1 12,-1 18,-1 8,0 15,0 23,1 1,0 1,0 2,0 0,-82 -13,-173 -44,-223zm528 772l0 0c-33,-56 -111,-87 -148,-99l0 0c-2,6 -3,11 -4,17 -2,5 -4,11 -5,16 -1,4 -3,7 -4,11l0 0c-3,9 -7,18 -11,28 -2,4 -4,8 -7,13 -1,2 -2,5 -4,8 -1,2 -2,5 -4,7 -2,4 -4,7 -6,11 -2,3 -4,6 -6,9 -1,2 -3,4 -4,6 0,1 -1,1 -1,2 -1,1 -1,2 -2,2 -2,3 -4,6 -6,9 0,0 -1,1 -1,1 -2,3 -5,6 -7,9 -2,3 -5,6 -8,9 -1,3 -3,5 -5,7 -1,1 -2,2 -3,2 -2,3 -4,6 -7,8 -1,1 -2,3 -4,4 -3,3 -6,6 -9,9 -2,2 -3,3 -4,4 -5,4 -9,8 -13,11 -7,6 -13,11 -20,16 -1,0 -2,1 -3,2 -4,2 -8,5 -12,8 51,32 94,78 104,150 11,70 -13,134 -44,185l0 0c1,0 2,-1 3,-1 1,0 3,-1 4,-1 4,-2 9,-4 14,-6 0,-1 0,-1 1,-1 1,0 3,-1 4,-2 5,-2 10,-5 15,-7 2,-1 3,-1 4,-2 4,-2 8,-4 13,-6 1,-1 2,-2 4,-2 5,-3 11,-6 16,-9 2,-1 4,-2 5,-3 4,-2 8,-5 12,-7 5,-2 9,-5 13,-8 2,-1 4,-3 7,-4 6,-4 12,-8 18,-12 1,-1 2,-1 3,-2 1,-1 2,-2 3,-3 6,-4 12,-8 18,-12 0,0 0,0 0,-1 1,0 1,0 1,0 0,0 1,-1 1,-1 0,0 1,-1 1,-1 1,-1 2,-1 3,-2 2,-2 5,-3 7,-5 7,-5 13,-11 20,-17 0,0 1,-1 1,-2l0 0c36,-33 67,-68 91,-101 0,-2 0,-3 1,-4l0 -1c0,-5 0,-10 1,-16 13,-112 7,-152 -36,-226z"/>
   <path class="fil2" d="M1355 826l0 3c0,2 -1,4 -1,6 -2,45 -15,98 -39,163 0,0 -16,36 -48,86 0,0 0,0 0,0 -8,13 -18,26 -28,40 -24,33 -55,68 -91,101l0 0c-7,6 -14,13 -21,19 -2,1 -3,2 -4,3 -1,0 -2,1 -3,2 -1,1 -2,1 -3,2 0,0 -1,1 -1,1 1,-1 3,-3 6,-6 1,-2 2,-3 4,-4 10,-13 26,-35 38,-64 1,-2 2,-4 3,-6 1,-5 3,-9 4,-14 1,-2 1,-4 2,-7 1,-2 1,-4 2,-7 0,0 0,0 0,-1 1,-4 2,-9 3,-14 0,0 0,0 0,0 1,-5 1,-10 1,-15 1,-3 1,-6 1,-9 2,-38 -7,-83 -35,-133 -30,-54 -77,-76 -133,-83 -120,-16 -281,34 -397,-19 -73,-34 -142,-102 -145,-199 0,-2 0,-4 0,-7 0,-35 9,-74 29,-117 28,-57 45,-125 49,-189 0,-3 0,-7 0,-10l0 -3c0,-3 0,-6 0,-10 -1,-144 -84,-256 -314,-149 -7,3 -13,6 -19,9 -1,0 -1,0 -2,1 0,-1 0,-1 0,-1 1,0 1,0 1,-1 12,-15 143,-194 421,-194 10,0 19,0 28,1 4,0 9,1 13,1 4,1 7,1 10,2 4,0 7,0 10,1 3,0 7,1 10,2 1,0 3,0 4,0 3,1 7,2 10,3 0,0 1,0 2,0 3,1 7,2 11,3 9,3 17,6 25,9 7,3 13,6 19,9 0,1 1,1 1,1 2,1 4,2 6,4 3,1 5,3 7,4 2,1 4,2 6,4 2,1 4,3 6,4 2,2 4,4 6,6 5,4 10,8 14,12 5,6 10,11 14,16 2,3 4,6 6,9 4,6 7,11 10,18 3,4 5,9 7,13 2,5 4,10 6,15 1,3 2,6 3,9 3,7 4,14 6,20 1,4 2,8 2,12 1,6 2,13 3,19 1,4 1,7 1,10 1,7 1,14 2,21 0,6 0,11 0,17l0 1c0,1 0,2 -1,2 0,5 0,10 0,14l0 1c0,4 -1,9 -1,13 0,3 -1,5 -1,7 0,4 -1,8 -1,11 -1,5 -2,11 -3,16 -1,9 -3,19 -5,28 -3,10 -6,19 -8,29 -7,19 -14,36 -21,49 -47,88 -72,144 -68,175l0 0c0,3 1,5 1,7 1,2 2,4 3,6 1,3 3,5 5,7 1,1 2,2 3,3 1,1 2,2 4,3 1,0 2,1 3,2 1,0 1,0 1,0 1,1 3,1 4,2 2,1 4,1 6,2 1,0 3,1 4,1l2 0c4,1 8,2 12,2 3,0 5,1 8,1 10,1 23,1 37,0 38,-2 111,-13 190,-12 4,0 9,0 13,0 4,0 9,0 13,0 136,4 278,37 272,211z"/>
   <path class="fil3" d="M1179 1114c0,5 0,10 -1,15 0,0 0,0 0,0 -1,5 -2,10 -3,14 0,1 0,1 0,1 -1,3 -1,5 -2,7 -1,3 -1,5 -2,7 -1,5 -3,9 -4,14 -1,2 -2,4 -3,6 -12,29 -28,51 -38,64 -2,1 -3,2 -4,4 -3,3 -5,5 -6,6 0,0 1,-1 1,-1 1,-1 2,-1 3,-2 1,-1 2,-2 3,-2 1,-1 2,-2 4,-3 5,-5 11,-10 17,-15 7,-11 14,-24 20,-39 1,-2 2,-4 3,-6 1,-5 3,-9 4,-14 1,-2 1,-4 2,-7 1,-2 1,-5 2,-7 0,0 0,-1 0,-1 1,-4 2,-9 3,-14 0,0 0,0 0,0 1,-5 1,-10 1,-15 1,-3 1,-6 1,-9 0,-5 0,-10 0,-16 0,2 0,3 0,4 0,3 0,6 -1,9zm-401 -1070l0 0c2,1 4,2 6,4 3,1 5,2 7,4 2,1 4,2 6,4 2,1 4,3 6,4 2,2 4,4 6,6 5,4 10,8 14,12 5,5 10,11 14,16 2,3 4,6 6,9 4,5 7,11 10,17 3,5 5,9 7,14 2,5 4,10 6,15 1,3 2,6 3,9 3,7 4,13 6,20 1,4 2,8 2,12 1,6 2,13 3,19 1,3 1,7 1,10 1,7 1,14 2,21 0,-4 0,-8 0,-12 -1,-7 -1,-14 -2,-21 0,-3 0,-6 -1,-10 -1,-6 -2,-13 -3,-19 0,-4 -1,-8 -2,-12 -2,-6 -3,-13 -6,-20 -1,-3 -2,-6 -3,-9 -2,-5 -4,-10 -6,-15 -2,-4 -4,-9 -7,-13 -3,-7 -6,-12 -10,-18 -2,-3 -4,-6 -6,-9 -4,-5 -9,-10 -14,-16 -4,-4 -9,-8 -14,-12 -2,-2 -4,-4 -6,-6 -2,-1 -4,-3 -6,-4 -2,-2 -4,-3 -6,-4 -2,-1 -4,-3 -7,-4 -2,-2 -4,-3 -6,-4 0,0 -1,0 -1,-1 -6,-3 -12,-6 -19,-9 -8,-3 -16,-6 -25,-9 -4,-1 -8,-2 -11,-3 -1,0 -2,0 -2,0 -3,-1 -7,-2 -10,-3 -1,0 -3,0 -4,0 -3,-1 -7,-2 -10,-2 -3,-1 -6,-1 -10,-1 -3,-1 -6,-1 -10,-2 -4,0 -9,-1 -13,-1 -9,-1 -18,-1 -28,-1 -278,0 -409,179 -421,194 0,1 0,1 -1,1 0,0 0,0 0,1 1,-1 1,-1 2,-1 4,-3 9,-5 13,-7 42,-49 173,-176 407,-176 10,0 19,0 28,1 4,0 9,1 13,1 4,0 7,1 10,1 4,1 7,1 10,2 3,0 7,1 10,2 1,0 3,0 4,0 3,1 7,2 10,3 0,0 1,0 2,0 3,1 7,2 11,3 9,3 17,6 25,9 7,3 13,6 19,9 0,0 1,1 1,1zm305 571l0 0c-4,0 -9,0 -13,0 -4,0 -9,0 -13,0 -79,-1 -152,10 -190,12 -14,1 -27,1 -37,0 -3,0 -5,-1 -8,-1 -4,0 -8,-1 -12,-2l-2 0c-1,0 -3,-1 -4,-1 -2,-1 -4,-1 -6,-2 -1,-1 -3,-1 -4,-2 0,0 0,0 -1,0 -1,-1 -2,-2 -3,-2 -2,-1 -3,-2 -4,-3 -1,-1 -2,-2 -3,-3 -2,-2 -4,-4 -5,-7 -1,-2 -2,-4 -3,-6 0,-2 -1,-4 -1,-7l0 0c0,0 0,-1 0,-1 -1,5 -1,9 0,13l0 0c0,3 1,5 1,7 1,2 2,4 3,6 1,3 3,5 5,7 1,1 2,2 3,3 1,1 2,2 4,3 1,0 2,1 3,2 1,0 1,0 1,0 1,1 3,1 4,2 2,1 4,1 6,2 1,0 3,0 4,1l2 0c4,1 8,2 12,2 3,0 5,1 8,1 10,0 23,0 37,0 38,-2 111,-13 190,-12 4,0 9,0 13,0 4,0 9,0 13,0 131,4 268,35 272,193 2,-168 -137,-201 -272,-205zm-535 -270l0 0 0 3c0,3 0,7 0,10 -4,64 -21,132 -49,189 -20,43 -29,82 -29,117 0,2 0,4 0,6 1,-34 10,-71 29,-111 28,-57 45,-125 49,-189 0,-3 0,-7 0,-10l0 -3c0,-3 0,-6 0,-10 0,-1 0,-3 0,-4 0,1 0,1 0,2z"/>
   <circle class="fil4" cx="637" cy="723" r="177"/>
   <path class="fil5" d="M677 895c-13,3 -27,4 -40,4 -98,0 -177,-79 -177,-176 0,-47 18,-90 48,-121 101,31 175,125 175,236 0,20 -2,39 -6,57z"/>
  </g>
 </g>
</svg>
